<mxfile host="app.diagrams.net" agent="Mozilla/5.0 (Windows NT 10.0; Win64; x64) AppleWebKit/537.36 (KHTML, like Gecko) Chrome/135.0.0.0 Safari/537.36" version="26.2.14">
  <diagram name="Страница — 1" id="Sp57LReOadlZPHStuh5D">
    <mxGraphModel dx="1181" dy="630" grid="1" gridSize="10" guides="1" tooltips="1" connect="1" arrows="1" fold="1" page="1" pageScale="1" pageWidth="827" pageHeight="1169" math="0" shadow="0">
      <root>
        <mxCell id="0" />
        <mxCell id="1" parent="0" />
        <mxCell id="DZ_fchZFJKnxGQ2MUEIr-2" value="Подать заявку" style="ellipse;whiteSpace=wrap;html=1;labelBackgroundColor=none;shadow=0;" vertex="1" parent="1">
          <mxGeometry x="120" y="440" width="120" height="80" as="geometry" />
        </mxCell>
        <mxCell id="DZ_fchZFJKnxGQ2MUEIr-13" style="edgeStyle=none;rounded=0;orthogonalLoop=1;jettySize=auto;html=1;entryX=0.5;entryY=0;entryDx=0;entryDy=0;" edge="1" parent="1" target="DZ_fchZFJKnxGQ2MUEIr-2">
          <mxGeometry relative="1" as="geometry">
            <mxPoint x="400" y="329.07563025210095" as="sourcePoint" />
          </mxGeometry>
        </mxCell>
        <mxCell id="DZ_fchZFJKnxGQ2MUEIr-15" value="" style="edgeStyle=none;rounded=0;orthogonalLoop=1;jettySize=auto;html=1;" edge="1" parent="1" target="DZ_fchZFJKnxGQ2MUEIr-4">
          <mxGeometry relative="1" as="geometry">
            <mxPoint x="436" y="346.34146341463406" as="sourcePoint" />
            <Array as="points">
              <mxPoint x="460" y="360" />
              <mxPoint x="500" y="440" />
            </Array>
          </mxGeometry>
        </mxCell>
        <mxCell id="DZ_fchZFJKnxGQ2MUEIr-17" value="" style="edgeStyle=none;rounded=0;orthogonalLoop=1;jettySize=auto;html=1;entryX=0.5;entryY=0;entryDx=0;entryDy=0;" edge="1" parent="1" target="DZ_fchZFJKnxGQ2MUEIr-3">
          <mxGeometry relative="1" as="geometry">
            <mxPoint x="400" y="347.69230769230774" as="sourcePoint" />
            <Array as="points">
              <mxPoint x="370" y="360" />
            </Array>
          </mxGeometry>
        </mxCell>
        <mxCell id="DZ_fchZFJKnxGQ2MUEIr-20" style="edgeStyle=none;rounded=0;orthogonalLoop=1;jettySize=auto;html=1;entryX=0.5;entryY=0;entryDx=0;entryDy=0;" edge="1" parent="1" target="DZ_fchZFJKnxGQ2MUEIr-5">
          <mxGeometry relative="1" as="geometry">
            <mxPoint x="436" y="328.9256198347108" as="sourcePoint" />
          </mxGeometry>
        </mxCell>
        <mxCell id="DZ_fchZFJKnxGQ2MUEIr-3" value="Просмотреть статус заявки" style="ellipse;whiteSpace=wrap;html=1;" vertex="1" parent="1">
          <mxGeometry x="280" y="440" width="120" height="80" as="geometry" />
        </mxCell>
        <mxCell id="DZ_fchZFJKnxGQ2MUEIr-4" value="Редактировать заявку" style="ellipse;whiteSpace=wrap;html=1;" vertex="1" parent="1">
          <mxGeometry x="440" y="440" width="120" height="80" as="geometry" />
        </mxCell>
        <mxCell id="DZ_fchZFJKnxGQ2MUEIr-5" value="Удалить заявку" style="ellipse;whiteSpace=wrap;html=1;" vertex="1" parent="1">
          <mxGeometry x="600" y="440" width="120" height="80" as="geometry" />
        </mxCell>
        <mxCell id="DZ_fchZFJKnxGQ2MUEIr-21" value="Пользователь" style="shape=umlActor;verticalLabelPosition=bottom;verticalAlign=top;html=1;outlineConnect=0;" vertex="1" parent="1">
          <mxGeometry x="400" y="280" width="40" height="80" as="geometry" />
        </mxCell>
      </root>
    </mxGraphModel>
  </diagram>
</mxfile>
